<svg id="514c89b0-bf8f-4080-a1a8-932dc0d9a6fb" data-name="Layer 1" xmlns="http://www.w3.org/2000/svg" viewBox="0 0 252.45 380.75"><title>logo_text</title><path d="M105.57,1447.63c0-28.57,26.29-48.74,49.64-48.74,16.78,0,32.65,6.35,45.57,21.77l-27.66,20.17c-4.54-4.76-12-8.39-17.91-8.39-9.29,0-15.64,5.66-15.64,15,0,7.71,5.67,14.74,23.58,15.87,28.78,1.81,52.59,21.31,52.59,54,0,32.86-27.43,56.44-57.12,56.44-19.27,0-38.54-7-54.64-24.7l29-21.32c7.71,9.75,15.64,12.24,25.62,12.24a20.47,20.47,0,0,0,20.63-20.18c0-13.6-9.07-22-25.39-23.8C124.62,1492.52,105.57,1474.16,105.57,1447.63Z" transform="translate(-87.96 -1398.89)" style="fill:white"/><path d="M231.44,1570.72V1401.84h89.77v31.73H266.58v31.51h54v31.51h-54v74.13H231.44Z" transform="translate(-87.96 -1398.89)" style="fill:white"/><path d="M110,1758.26v21h-4.27v-12.45L99,1771.68l-6.71-4.85v12.45H88v-21l11,8.35Z" transform="translate(-87.96 -1398.89)" style="fill:white"/><path d="M114.28,1769.71v-11.09h4.3v11.81c0,3.25,1.58,5.08,4.63,5.08,3.22,0,4.6-2,4.6-5.08v-11.81h4.24v11.45c0,6-3.36,9.57-8.85,9.57C117.17,1779.64,114.28,1775.45,114.28,1769.71Z" transform="translate(-87.96 -1398.89)" style="fill:white"/><path d="M135.22,1764.22a6.21,6.21,0,0,1,6.07-6,7,7,0,0,1,5.57,2.66l-3.38,2.47a3.37,3.37,0,0,0-2.19-1,1.76,1.76,0,0,0-1.91,1.83c0,0.94.69,1.8,2.88,1.94,3.52,0.22,6.43,2.61,6.43,6.6a7,7,0,0,1-7,6.9,8.8,8.8,0,0,1-6.68-3l3.55-2.61a3.58,3.58,0,0,0,3.13,1.5,2.5,2.5,0,0,0,2.52-2.47c0-1.66-1.11-2.69-3.11-2.91C137.55,1769.71,135.22,1767.47,135.22,1764.22Z" transform="translate(-87.96 -1398.89)" style="fill:white"/><path d="M156.19,1779.28h-4.3v-20.66h4.3v20.66Z" transform="translate(-87.96 -1398.89)" style="fill:white"/><path d="M181.1,1770.16a10.76,10.76,0,0,1-10.65,9.48,10.69,10.69,0,1,1,9.1-16.36l-3.36,2.38a6.92,6.92,0,0,0-5.74-3.3,6.58,6.58,0,1,0,6.3,7.79h4.35Z" transform="translate(-87.96 -1398.89)" style="fill:white"/><path d="M210.61,1776.51h-10l-1.33,2.77h-4.44l10.9-21,10.93,21H212Zm-8.15-3.88h6.27l-3.16-6.43Z" transform="translate(-87.96 -1398.89)" style="fill:white"/><path d="M223.32,1758.62v16.78h8.32v3.88H219v-20.66h4.3Z" transform="translate(-87.96 -1398.89)" style="fill:white"/><path d="M238.88,1758.62v16.78h8.32v3.88H234.58v-20.66h4.3Z" transform="translate(-87.96 -1398.89)" style="fill:white"/><path d="M254.44,1779.28h-4.3v-20.66h4.3v20.66Z" transform="translate(-87.96 -1398.89)" style="fill:white"/><path d="M272.58,1776.51h-10l-1.33,2.77H256.8l10.9-21,10.93,21h-4.69Zm-8.15-3.88h6.27l-3.16-6.43Z" transform="translate(-87.96 -1398.89)" style="fill:white"/><path d="M295.68,1758.62H300v21l-14.7-12.23v11.87H281v-21.05l14.7,12.34v-12Z" transform="translate(-87.96 -1398.89)" style="fill:white"/><path d="M324.47,1770.16a10.76,10.76,0,0,1-10.65,9.48,10.69,10.69,0,1,1,9.1-16.36l-3.35,2.38a6.92,6.92,0,0,0-5.74-3.3,6.58,6.58,0,1,0,6.3,7.79h4.35Z" transform="translate(-87.96 -1398.89)" style="fill:white"/><path d="M328.11,1779.28v-20.66h12.3v3.88h-8v3.85h8v3.85h-8v5.19h8v3.88h-12.3Z" transform="translate(-87.96 -1398.89)" style="fill:white"/></svg>