<svg id="75b8fdc1-df71-49df-bfb5-4c6b8a019f60" data-name="Layer 1" xmlns="http://www.w3.org/2000/svg" xmlns:xlink="http://www.w3.org/1999/xlink" viewBox="0 0 369.38 305.52"><defs><clipPath id="4d04c479-0c08-4614-bc58-affbf2f41d1c" transform="translate(-26.78 -55.54)"><circle cx="211.47" cy="208.3" r="152.76" style="fill:none"/></clipPath></defs><title>logo_color_2</title><circle cx="184.69" cy="152.76" r="152.76" style="fill:#789eaf"/><path d="M126.69,133c0-22.36,20.58-38.15,38.86-38.15,13.13,0,25.55,5,35.67,17l-21.65,15.79c-3.55-3.73-9.41-6.57-14-6.57-7.27,0-12.24,4.43-12.24,11.71,0,6,4.44,11.54,18.45,12.42,22.53,1.42,41.16,16.68,41.16,42.23,0,25.72-21.47,44.18-44.71,44.18-15.08,0-30.16-5.5-42.76-19.34l22.71-16.68c6,7.63,12.24,9.58,20,9.58a16,16,0,0,0,16.14-15.79c0-10.65-7.1-17.21-19.87-18.63C141.6,168.18,126.69,153.81,126.69,133Z" transform="translate(-26.78 -55.54)" style="fill:#fff;stroke:#fff;stroke-miterlimit:10"/><path d="M225.22,229.39V97.2h70.27V122H252.72v24.67H295v24.66H252.72v58h-27.5Z" transform="translate(-26.78 -55.54)" style="fill:#fff;stroke:#fff;stroke-miterlimit:10"/><circle cx="184.69" cy="152.76" r="152.76" style="fill:none"/><path d="M129.88,289.65V306.1h-3.34v-9.75l-5.25,3.8-5.25-3.8v9.75h-3.36V289.65l8.62,6.53Z" transform="translate(-26.78 -55.54)" style="fill:#fff"/><path d="M133.27,298.61v-8.68h3.36v9.25c0,2.54,1.24,4,3.62,4s3.6-1.54,3.6-4v-9.25h3.32v9c0,4.71-2.63,7.49-6.92,7.49C135.53,306.38,133.27,303.11,133.27,298.61Z" transform="translate(-26.78 -55.54)" style="fill:#fff"/><path d="M149.66,294.31a4.86,4.86,0,0,1,4.75-4.67,5.5,5.5,0,0,1,4.36,2.08l-2.65,1.93a2.64,2.64,0,0,0-1.71-.8,1.37,1.37,0,0,0-1.5,1.43c0,0.74.54,1.41,2.26,1.52a5.06,5.06,0,0,1,5,5.17,5.45,5.45,0,0,1-5.47,5.4,6.89,6.89,0,0,1-5.23-2.37l2.78-2a2.8,2.8,0,0,0,2.45,1.17,2,2,0,0,0,2-1.93c0-1.3-.87-2.11-2.43-2.28C151.48,298.61,149.66,296.85,149.66,294.31Z" transform="translate(-26.78 -55.54)" style="fill:#fff"/><path d="M166.07,306.1h-3.36V289.93h3.36V306.1Z" transform="translate(-26.78 -55.54)" style="fill:#fff"/><path d="M185.57,299a8.42,8.42,0,0,1-8.34,7.42,8.37,8.37,0,1,1,7.12-12.81l-2.63,1.87a5.42,5.42,0,0,0-4.49-2.58,5.15,5.15,0,1,0,4.93,6.1h3.41Z" transform="translate(-26.78 -55.54)" style="fill:#fff"/><path d="M208.67,303.93h-7.84l-1,2.17h-3.47l8.53-16.45,8.55,16.45h-3.67Zm-6.38-3h4.91l-2.47-5Z" transform="translate(-26.78 -55.54)" style="fill:#fff"/><path d="M218.61,289.93v13.13h6.51v3h-9.88V289.93h3.36Z" transform="translate(-26.78 -55.54)" style="fill:#fff"/><path d="M230.79,289.93v13.13h6.51v3h-9.88V289.93h3.36Z" transform="translate(-26.78 -55.54)" style="fill:#fff"/><path d="M243,306.1h-3.36V289.93H243V306.1Z" transform="translate(-26.78 -55.54)" style="fill:#fff"/><path d="M257.17,303.93h-7.84l-1,2.17h-3.47l8.53-16.45,8.55,16.45h-3.67Zm-6.38-3h4.91l-2.47-5Z" transform="translate(-26.78 -55.54)" style="fill:#fff"/><path d="M275.25,289.93h3.36v16.45l-11.5-9.57v9.29h-3.36V289.62l11.5,9.66v-9.35Z" transform="translate(-26.78 -55.54)" style="fill:#fff"/><path d="M297.79,299a8.42,8.42,0,0,1-8.34,7.42,8.37,8.37,0,1,1,7.12-12.81l-2.63,1.87a5.42,5.42,0,0,0-4.49-2.58,5.15,5.15,0,1,0,4.93,6.1h3.41Z" transform="translate(-26.78 -55.54)" style="fill:#fff"/><path d="M300.64,306.1V289.93h9.63v3H304v3h6.26v3H304v4.06h6.26v3h-9.63Z" transform="translate(-26.78 -55.54)" style="fill:#fff"/><g style="clip-path:url(#4d04c479-0c08-4614-bc58-affbf2f41d1c)"><polyline points="369.38 211.69 339.27 211.69 333.4 191.81 321.64 208.04 318.7 190.09 308.42 209.1 301.08 179.72 290.78 206.11 281.98 165.9 274.97 199.58 265.9 141.71 255.08 204.1 245.93 168.21 235.97 209.76 226.48 178.85 218.8 209.1 209.98 191.15 201.16 210.82 192.87 198.15 184.97 210.82 176.51 198.15 168.22 210.82 159.4 191.15 150.58 209.1 142.89 178.85 133.41 209.76 123.45 168.21 114.3 204.1 103.48 141.71 94.41 199.58 87.4 165.9 78.59 206.11 68.3 179.72 60.95 209.1 50.67 190.09 47.73 208.04 35.98 191.81 30.1 211.69 0 211.69" style="fill:none;stroke:#c3573b;stroke-miterlimit:10;stroke-width:7px;fill-rule:evenodd"/></g></svg>