<svg id="8cea348f-f180-4fdf-850b-c5effaa317fa" data-name="Layer 1" xmlns="http://www.w3.org/2000/svg" xmlns:xlink="http://www.w3.org/1999/xlink" viewBox="0 0 406.38 305.52"><defs><clipPath id="460bacab-c68a-4c9f-b61b-8dc15c10c809" transform="translate(2.87 -509.54)"><circle cx="211.47" cy="662.3" r="152.76" style="fill:none"/></clipPath></defs><title>logo_color</title><circle cx="214.34" cy="152.76" r="152.76" style="fill:#c3573b"/><path d="M126.69,583c0-22.36,20.58-38.15,38.86-38.15,13.13,0,25.55,5,35.67,17l-21.65,15.79c-3.55-3.72-9.41-6.57-14-6.57-7.27,0-12.24,4.43-12.24,11.71,0,6,4.44,11.54,18.45,12.42,22.53,1.42,41.16,16.68,41.16,42.23,0,25.72-21.47,44.18-44.71,44.18-15.08,0-30.16-5.5-42.76-19.34l22.71-16.68c6,7.63,12.24,9.58,20,9.58a16,16,0,0,0,16.14-15.79c0-10.65-7.1-17.21-19.87-18.63C141.6,618.18,126.69,603.81,126.69,583Z" transform="translate(2.87 -509.54)" style="fill:#fff;stroke:#fff;stroke-miterlimit:10"/><path d="M225.22,679.39V547.2h70.27V572H252.72v24.66H295v24.66H252.72v58h-27.5Z" transform="translate(2.87 -509.54)" style="fill:#fff;stroke:#fff;stroke-miterlimit:10"/><circle cx="214.34" cy="152.76" r="152.76" style="fill:none"/><path d="M129.88,749.65V766.1h-3.34v-9.75l-5.25,3.8-5.25-3.8v9.75h-3.36V749.65l8.62,6.53Z" transform="translate(2.87 -509.54)" style="fill:#fff"/><path d="M133.27,758.61v-8.68h3.36v9.25c0,2.54,1.24,4,3.62,4s3.6-1.54,3.6-4v-9.25h3.32v9c0,4.71-2.63,7.49-6.92,7.49C135.53,766.38,133.27,763.11,133.27,758.61Z" transform="translate(2.87 -509.54)" style="fill:#fff"/><path d="M149.66,754.31a4.86,4.86,0,0,1,4.75-4.67,5.5,5.5,0,0,1,4.36,2.08l-2.65,1.93a2.64,2.64,0,0,0-1.71-.8,1.37,1.37,0,0,0-1.5,1.43c0,0.74.54,1.41,2.26,1.52a5.06,5.06,0,0,1,5,5.17,5.45,5.45,0,0,1-5.47,5.4,6.89,6.89,0,0,1-5.23-2.37l2.78-2a2.8,2.8,0,0,0,2.45,1.17,2,2,0,0,0,2-1.93c0-1.3-.87-2.11-2.43-2.28C151.48,758.61,149.66,756.85,149.66,754.31Z" transform="translate(2.87 -509.54)" style="fill:#fff"/><path d="M166.07,766.1h-3.36V749.93h3.36V766.1Z" transform="translate(2.87 -509.54)" style="fill:#fff"/><path d="M185.57,759a8.42,8.42,0,0,1-8.34,7.42,8.37,8.37,0,1,1,7.12-12.81l-2.63,1.87a5.42,5.42,0,0,0-4.49-2.58,5.15,5.15,0,1,0,4.93,6.1h3.41Z" transform="translate(2.87 -509.54)" style="fill:#fff"/><path d="M208.67,763.93h-7.84l-1,2.17h-3.47l8.53-16.45,8.55,16.45h-3.67Zm-6.38-3h4.91l-2.47-5Z" transform="translate(2.87 -509.54)" style="fill:#fff"/><path d="M218.61,749.93v13.13h6.51v3h-9.88V749.93h3.36Z" transform="translate(2.87 -509.54)" style="fill:#fff"/><path d="M230.79,749.93v13.13h6.51v3h-9.88V749.93h3.36Z" transform="translate(2.87 -509.54)" style="fill:#fff"/><path d="M243,766.1h-3.36V749.93H243V766.1Z" transform="translate(2.87 -509.54)" style="fill:#fff"/><path d="M257.17,763.93h-7.84l-1,2.17h-3.47l8.53-16.45,8.55,16.45h-3.67Zm-6.38-3h4.91l-2.47-5Z" transform="translate(2.87 -509.54)" style="fill:#fff"/><path d="M275.25,749.93h3.36v16.45l-11.5-9.57v9.29h-3.36V749.62l11.5,9.66v-9.36Z" transform="translate(2.87 -509.54)" style="fill:#fff"/><path d="M297.79,759a8.42,8.42,0,0,1-8.34,7.42,8.37,8.37,0,1,1,7.12-12.81l-2.63,1.87a5.42,5.42,0,0,0-4.49-2.58,5.15,5.15,0,1,0,4.93,6.1h3.41Z" transform="translate(2.87 -509.54)" style="fill:#fff"/><path d="M300.64,766.1V749.93h9.63v3H304v3h6.26v3H304v4.06h6.26v3h-9.63Z" transform="translate(2.87 -509.54)" style="fill:#fff"/><g style="clip-path:url(#460bacab-c68a-4c9f-b61b-8dc15c10c809)"><polyline points="406.38 222.74 373.26 222.74 366.8 202.87 353.86 219.09 350.63 201.14 339.32 220.15 331.24 190.78 319.91 217.17 310.22 176.95 302.51 210.63 292.54 152.76 280.63 215.15 270.56 179.26 259.61 220.81 249.17 189.91 240.72 220.15 231.01 202.2 221.31 221.88 212.19 209.2 203.5 221.88 194.19 209.2 185.06 221.88 175.37 202.2 165.66 220.15 157.21 189.91 146.77 220.81 135.82 179.26 125.75 215.15 113.84 152.76 103.86 210.63 96.16 176.95 86.47 217.17 75.14 190.78 67.06 220.15 55.75 201.14 52.52 219.09 39.58 202.87 33.12 222.74 0 222.74" style="fill:none;stroke:#fff;stroke-miterlimit:10;stroke-width:7px;fill-rule:evenodd"/></g></svg>