<svg id="6ceb2106-5943-46bf-8689-1094326050f5" data-name="Layer 1" xmlns="http://www.w3.org/2000/svg" viewBox="0 0 409.38 102.83"><title>wave_color_2</title><polyline points="409.38 91.47 359.27 91.47 353.4 71.6 341.64 87.82 338.7 69.87 328.42 88.88 321.08 59.51 310.78 85.9 301.97 45.68 294.97 79.36 285.9 21.49 275.08 83.88 265.93 47.99 255.97 89.54 246.48 58.64 238.8 88.88 229.98 70.93 221.16 90.61 212.87 77.92 204.97 90.61 196.51 77.92 188.22 90.61 179.4 70.93 170.58 88.88 162.9 58.64 153.41 89.54 143.45 47.99 134.3 83.88 123.48 21.49 114.41 79.36 107.4 45.68 98.59 85.9 88.3 59.51 80.95 88.88 70.67 69.87 67.73 87.82 55.98 71.6 50.1 91.47 0 91.47" style="fill:none;stroke:#fc3158;stroke-miterlimit:10;stroke-width:7px;fill-rule:evenodd"/></svg>